<svg xmlns="http://www.w3.org/2000/svg" width="1633.391" height="470.631">
  <g data-name="Group 1">
    <g data-name="Group 21">
      <g data-name="Path 26">
        <path data-name="Path 25" d="M74.54 207.35L270.965 10.922l31.624 31.472c-4.48 11.731-13.293 41.265 3.536 58.19 16.863 16.96 46.81 8.061 58.65 3.565l39.85 40.388-196.45 196.449z" fill="#3c13d3"/>
        <path data-name="Path 26" d="M394.055 144.502l-31.231-31.655c-15.339 5.145-43.97 11.175-62.015-6.973-17.99-18.092-12.038-46.359-6.915-61.553L270.98 21.517 85.146 207.35l123.03 123.03 185.879-185.878m21.142.071l-207.02 207.02L63.933 207.35 270.953.33l40.492 40.296s-17.428 37.146 0 54.673 55.134 0 55.134 0z" fill="#fff"/>
      </g>
      <g data-name="Rectangle 13" fill="#3c13d3" stroke="#fd5359" stroke-linejoin="round" stroke-width="15">
        <path stroke="none" d="M250.956 79.742l86.875 89.875-138.048 133.44-86.875-89.875z"/>
        <path fill="none" d="M250.776 90.347l76.45 79.09-127.263 123.015-76.45-79.09z" stroke-width="14.99985"/>
      </g>
      <path data-name="Path 25" d="M7.5 202.63h472.442v66.868s-30.847 5.913-31.781 39.349 31.781 41.363 31.781 41.363v64.42H7.5v-64.592s33.126-11.34 32.76-41.191S7.5 269.66 7.5 269.66z" fill="#3c13d3" stroke="#fff" stroke-linejoin="round" stroke-width="15"/>
      <path data-name="Path 5" d="M356.589 252.03a15.6 15.6 0 01-15.6-15.6 7.8 7.8 0 00-7.8-7.8h-171.6a7.8 7.8 0 00-7.8 7.8 15.6 15.6 0 01-15.6 15.6 7.8 7.8 0 00-7.8 7.8v93.6a7.8 7.8 0 007.8 7.8 15.6 15.6 0 0115.6 15.6 7.8 7.8 0 007.8 7.8h171.6a7.8 7.8 0 007.8-7.8 15.6 15.6 0 0115.6-15.6 7.8 7.8 0 007.8-7.8v-93.6a7.8 7.8 0 00-7.8-7.8zm-7.8 94.583a31.325 31.325 0 00-22.417 22.417H168.406a31.325 31.325 0 00-22.417-22.418v-79.966a31.325 31.325 0 0022.417-22.416h157.966a31.325 31.325 0 0022.417 22.416z" fill="#fd5359"/>
      <path data-name="Rectangle 4" fill="#fff" d="M96.389 206.629h16v32h-16z"/>
      <path data-name="Rectangle 6" fill="#fd5359" d="M96.389 341.631h16v20h-16z"/>
      <g data-name="Ellipse 1" transform="translate(334.389 358.631)" fill="#3c13d3" stroke="#fff" stroke-width="14">
        <circle cx="56" cy="56" r="56" stroke="none"/>
        <circle cx="56" cy="56" r="49" fill="none"/>
      </g>
      <g data-name="Ellipse 2" transform="translate(48.389 358.631)" fill="#3c13d3" stroke="#fff" stroke-width="13">
        <circle cx="56" cy="56" r="56" stroke="none"/>
        <circle cx="56" cy="56" r="49.5" fill="none"/>
      </g>
      <path data-name="Rectangle 7" fill="#fd5359" d="M96.389 251.629h16v32h-16z"/>
      <path data-name="Rectangle 8" fill="#fff" d="M96.389 296.629h16v32h-16z"/>
      <path data-name="Rectangle 9" fill="#fd5359" d="M382.389 206.629h16v32h-16z"/>
      <path data-name="Rectangle 10" fill="#fff" d="M382.389 251.629h16v32h-16z"/>
      <path data-name="Rectangle 11" fill="#fd5359" d="M382.389 296.629h16v32h-16z"/>
      <path data-name="Rectangle 12" fill="#fff" d="M382.389 341.629h16v19h-16z"/>
    </g>
    <path data-name="Path 27" d="M761.525 195.951v17.385h-97.031V464h-45.079V213.336h-97.031v-17.385zM918.19 470.267a151.064 151.064 0 01-58.117-11.119 147.087 147.087 0 01-46.9-30.423 142.647 142.647 0 01-31.333-45.079 134.432 134.432 0 01-11.421-55.085 132.243 132.243 0 015.155-36.993 133.17 133.17 0 0114.656-33.152 137.691 137.691 0 0122.944-28 145.97 145.97 0 0129.817-21.63 153.58 153.58 0 0135.376-13.948 157.285 157.285 0 0139.823-4.953 157.285 157.285 0 0139.823 4.953 155.582 155.582 0 0135.477 13.948 142.376 142.376 0 0129.817 21.63 142.311 142.311 0 0122.944 28 131.023 131.023 0 0114.757 33.152 132.243 132.243 0 015.155 36.993 136.179 136.179 0 01-5.155 37.5 136.893 136.893 0 01-14.757 33.86 144.606 144.606 0 01-22.944 28.705 145.011 145.011 0 01-29.816 22.234 150.569 150.569 0 01-35.477 14.353 154.311 154.311 0 01-39.824 5.054zm0-13.342q23.045 0 40.733-9.6a87.026 87.026 0 0029.817-26.787q12.129-17.183 18.294-40.632a201.608 201.608 0 006.166-51.346q0-27.694-6.166-50.739T988.74 238.1a85.016 85.016 0 00-29.817-25.875q-17.688-9.2-40.733-9.2-23.449 0-41.137 9.2a84.12 84.12 0 00-29.716 25.875q-12.028 16.677-18.092 39.722t-6.064 50.739a204.8 204.8 0 006.064 51.346q6.064 23.449 18.092 40.632a86.114 86.114 0 0029.716 26.785q17.688 9.601 41.137 9.601zm204.575-260.974h45.079V370a88.1 88.1 0 005.862 32.243 78.709 78.709 0 0016.778 26.38 79.127 79.127 0 0026.38 17.89 87.3 87.3 0 0034.466 6.57q19.2 0 34.567-6.57a78.263 78.263 0 0026.178-17.89 78.2 78.2 0 0016.576-26.38 89.469 89.469 0 005.763-32.243V195.95h19.811V370a111.856 111.856 0 01-6.671 38.813 83.262 83.262 0 01-20.922 31.838q-14.252 13.649-36.488 21.631t-53.368 7.985q-27.694 0-49.021-7.985t-35.78-21.731a90.025 90.025 0 01-21.832-32.243 105.668 105.668 0 01-7.378-39.52zm510.627 0v17.385h-97.032V464h-45.079V213.336h-97.031v-17.385z" fill="#fff"/>
  </g>
</svg>
