<svg xmlns="http://www.w3.org/2000/svg" xmlns:xlink="http://www.w3.org/1999/xlink" viewBox="0 0 360 250">
  <defs>
    <path id="a" d="M0 0h360v250H0z"/>
  </defs>
  <g fill="none" fill-rule="evenodd">
    <mask id="b" fill="#fff">
      <use xlink:href="#a"/>
    </mask>
    <path fill="#FFF" d="M359 124.924c34.564 11.671 58-32.89 58-73.462S391.033-22 359-22c-19.398 0-60.782 18.899-88.252 16.672C22.786-25.427 115.307 25.93 217.802 25.93c38.29 0 77.334 20.73 83.198 25.533 48.884 40.031 23.436 61.79 58 73.462z" mask="url(#b)"/>
    <path fill="#FD5359" d="M-23 62.505c76.028-7.666 125.142-.07 147.342 22.79 22.199 22.86 41.758 73.096 58.676 150.707L-23 222V62.505z" mask="url(#b)"/>
    <path fill="#3C13D3" d="M180 371c99.411 0 180-38.727 180-86.5 0-14.094 15.75-69.75 0-102.478-6.248-12.984-21.889-30.484-38.677-32.401-14.796-1.69-30.554 10.368-40.554 25.118C229.743 250 100.403 240.97 27.294 202.005-45.815 163.04 0 236.727 0 284.5S80.589 371 180 371z" mask="url(#b)"/>
  </g>
</svg>
